<svg width="215" height="40" viewBox="0 0 215 40" fill="none" xmlns="http://www.w3.org/2000/svg">
<path d="M82.82 30V16.112H85.984L86.264 18.464C86.6933 17.6427 87.3093 16.9893 88.112 16.504C88.9333 16.0187 89.8947 15.776 90.996 15.776C92.7133 15.776 94.048 16.3173 95 17.4C95.952 18.4827 96.428 20.0693 96.428 22.16V30H92.844V22.496C92.844 21.3013 92.6013 20.3867 92.116 19.752C91.6307 19.1173 90.8747 18.8 89.848 18.8C88.84 18.8 88.0093 19.1547 87.356 19.864C86.7213 20.5733 86.404 21.5627 86.404 22.832V30H82.82ZM113.239 16.112V30H110.075L109.795 27.648C109.366 28.4693 108.74 29.1227 107.919 29.608C107.116 30.0933 106.164 30.336 105.063 30.336C103.346 30.336 102.011 29.7947 101.059 28.712C100.107 27.6293 99.6312 26.0427 99.6312 23.952V16.112H103.215V23.616C103.215 24.8107 103.458 25.7253 103.943 26.36C104.428 26.9947 105.184 27.312 106.211 27.312C107.219 27.312 108.04 26.9573 108.675 26.248C109.328 25.5387 109.655 24.5493 109.655 23.28V16.112H113.239ZM115.574 30L120.614 23.056L115.574 16.112H119.41L122.938 21.04L126.438 16.112H130.302L125.234 23.056L130.302 30H126.438L122.938 25.072L119.41 30H115.574ZM138.774 30C137.318 30 136.151 29.6453 135.274 28.936C134.396 28.2267 133.958 26.9667 133.958 25.156V19.108H131.578V16.112H133.958L134.378 12.388H137.542V16.112H141.294V19.108H137.542V25.184C137.542 25.856 137.682 26.3227 137.962 26.584C138.26 26.8267 138.764 26.948 139.474 26.948H141.21V30H138.774ZM143.195 33.108L150.195 8.244H153.695L146.667 33.108H143.195Z" fill="white"/>
<path d="M156.156 30V16.112H159.32L159.628 17.988C160.076 17.316 160.664 16.784 161.392 16.392C162.139 15.9813 162.997 15.776 163.968 15.776C166.115 15.776 167.636 16.6067 168.532 18.268C169.036 17.5027 169.708 16.896 170.548 16.448C171.407 16 172.34 15.776 173.348 15.776C175.159 15.776 176.549 16.3173 177.52 17.4C178.491 18.4827 178.976 20.0693 178.976 22.16V30H175.392V22.496C175.392 21.3013 175.159 20.3867 174.692 19.752C174.244 19.1173 173.544 18.8 172.592 18.8C171.621 18.8 170.837 19.1547 170.24 19.864C169.661 20.5733 169.372 21.5627 169.372 22.832V30H165.788V22.496C165.788 21.3013 165.555 20.3867 165.088 19.752C164.621 19.1173 163.903 18.8 162.932 18.8C161.98 18.8 161.205 19.1547 160.608 19.864C160.029 20.5733 159.74 21.5627 159.74 22.832V30H156.156ZM188.763 30.336C187.456 30.336 186.289 30.0187 185.263 29.384C184.236 28.7493 183.424 27.8813 182.827 26.78C182.229 25.6787 181.931 24.428 181.931 23.028C181.931 21.628 182.229 20.3867 182.827 19.304C183.424 18.2027 184.236 17.344 185.263 16.728C186.289 16.0933 187.456 15.776 188.763 15.776C189.808 15.776 190.723 15.972 191.507 16.364C192.291 16.756 192.925 17.3067 193.411 18.016V9.84H196.995V30H193.803L193.411 28.012C192.963 28.628 192.365 29.1693 191.619 29.636C190.891 30.1027 189.939 30.336 188.763 30.336ZM189.519 27.2C190.676 27.2 191.619 26.8173 192.347 26.052C193.093 25.268 193.467 24.2693 193.467 23.056C193.467 21.8427 193.093 20.8533 192.347 20.088C191.619 19.304 190.676 18.912 189.519 18.912C188.38 18.912 187.437 19.2947 186.691 20.06C185.944 20.8253 185.571 21.8147 185.571 23.028C185.571 24.2413 185.944 25.24 186.691 26.024C187.437 26.808 188.38 27.2 189.519 27.2ZM199.328 30L204.368 23.056L199.328 16.112H203.164L206.692 21.04L210.192 16.112H214.056L208.988 23.056L214.056 30H210.192L206.692 25.072L203.164 30H199.328Z" fill="#F9AC00"/>
<path fill-rule="evenodd" clip-rule="evenodd" d="M41.4677 11.2695V24.4039L46.2919 19.58L48.727 22.0153L39.8094 30.9323L30.7793 21.9022L33.2145 19.467L38.0237 24.2762V11.2695H41.4677Z" fill="white"/>
<path fill-rule="evenodd" clip-rule="evenodd" d="M26.3904 11.7319V30.161H22.9464V20.0458L16.6716 26.3203L10.4439 20.0922V30.2638H7V11.7774L16.6717 21.4499L26.3904 11.7319Z" fill="white"/>
<path fill-rule="evenodd" clip-rule="evenodd" d="M63.7056 20.4495L70.7757 27.5194L68.3405 29.9546L61.2703 22.8847L54.2001 29.9546L51.765 27.5194L58.8351 20.4495L51.5405 13.1552L53.9757 10.72L61.2703 18.0143L68.5649 10.72L71.0001 13.1552L63.7056 20.4495Z" fill="#F9AC00"/>
</svg>
