<svg width="216" height="40" viewBox="0 0 216 40" fill="none" xmlns="http://www.w3.org/2000/svg">
<path d="M82.82 28V14.112H85.984L86.264 16.464C86.6933 15.6427 87.3093 14.9893 88.112 14.504C88.9333 14.0187 89.8947 13.776 90.996 13.776C92.7133 13.776 94.048 14.3173 95 15.4C95.952 16.4827 96.428 18.0693 96.428 20.16V28H92.844V20.496C92.844 19.3013 92.6013 18.3867 92.116 17.752C91.6307 17.1173 90.8747 16.8 89.848 16.8C88.84 16.8 88.0093 17.1547 87.356 17.864C86.7213 18.5733 86.404 19.5627 86.404 20.832V28H82.82ZM113.239 14.112V28H110.075L109.795 25.648C109.366 26.4693 108.74 27.1227 107.919 27.608C107.116 28.0933 106.164 28.336 105.063 28.336C103.346 28.336 102.011 27.7947 101.059 26.712C100.107 25.6293 99.6312 24.0427 99.6312 21.952V14.112H103.215V21.616C103.215 22.8107 103.458 23.7253 103.943 24.36C104.428 24.9947 105.184 25.312 106.211 25.312C107.219 25.312 108.04 24.9573 108.675 24.248C109.328 23.5387 109.655 22.5493 109.655 21.28V14.112H113.239ZM115.574 28L120.614 21.056L115.574 14.112H119.41L122.938 19.04L126.438 14.112H130.302L125.234 21.056L130.302 28H126.438L122.938 23.072L119.41 28H115.574ZM138.774 28C137.318 28 136.151 27.6453 135.274 26.936C134.396 26.2267 133.958 24.9667 133.958 23.156V17.108H131.578V14.112H133.958L134.378 10.388H137.542V14.112H141.294V17.108H137.542V23.184C137.542 23.856 137.682 24.3227 137.962 24.584C138.26 24.8267 138.764 24.948 139.474 24.948H141.21V28H138.774ZM143.195 31.108L150.195 6.244H153.695L146.667 31.108H143.195Z" fill="#003C3C"/>
<path d="M156.156 28V14.112H159.32L159.628 15.988C160.076 15.316 160.664 14.784 161.392 14.392C162.139 13.9813 162.997 13.776 163.968 13.776C166.115 13.776 167.636 14.6067 168.532 16.268C169.036 15.5027 169.708 14.896 170.548 14.448C171.407 14 172.34 13.776 173.348 13.776C175.159 13.776 176.549 14.3173 177.52 15.4C178.491 16.4827 178.976 18.0693 178.976 20.16V28H175.392V20.496C175.392 19.3013 175.159 18.3867 174.692 17.752C174.244 17.1173 173.544 16.8 172.592 16.8C171.621 16.8 170.837 17.1547 170.24 17.864C169.661 18.5733 169.372 19.5627 169.372 20.832V28H165.788V20.496C165.788 19.3013 165.555 18.3867 165.088 17.752C164.621 17.1173 163.903 16.8 162.932 16.8C161.98 16.8 161.205 17.1547 160.608 17.864C160.029 18.5733 159.74 19.5627 159.74 20.832V28H156.156ZM188.763 28.336C187.456 28.336 186.289 28.0187 185.263 27.384C184.236 26.7493 183.424 25.8813 182.827 24.78C182.229 23.6787 181.931 22.428 181.931 21.028C181.931 19.628 182.229 18.3867 182.827 17.304C183.424 16.2027 184.236 15.344 185.263 14.728C186.289 14.0933 187.456 13.776 188.763 13.776C189.808 13.776 190.723 13.972 191.507 14.364C192.291 14.756 192.925 15.3067 193.411 16.016V7.84H196.995V28H193.803L193.411 26.012C192.963 26.628 192.365 27.1693 191.619 27.636C190.891 28.1027 189.939 28.336 188.763 28.336ZM189.519 25.2C190.676 25.2 191.619 24.8173 192.347 24.052C193.093 23.268 193.467 22.2693 193.467 21.056C193.467 19.8427 193.093 18.8533 192.347 18.088C191.619 17.304 190.676 16.912 189.519 16.912C188.38 16.912 187.437 17.2947 186.691 18.06C185.944 18.8253 185.571 19.8147 185.571 21.028C185.571 22.2413 185.944 23.24 186.691 24.024C187.437 24.808 188.38 25.2 189.519 25.2ZM199.328 28L204.368 21.056L199.328 14.112H203.164L206.692 19.04L210.192 14.112H214.056L208.988 21.056L214.056 28H210.192L206.692 23.072L203.164 28H199.328Z" fill="#F9AC00"/>
<path fill-rule="evenodd" clip-rule="evenodd" d="M41.4677 11.2695V24.4039L46.2919 19.58L48.727 22.0153L39.8094 30.9323L30.7793 21.9022L33.2145 19.467L38.0237 24.2762V11.2695H41.4677Z" fill="black"/>
<path fill-rule="evenodd" clip-rule="evenodd" d="M26.3904 11.7319V30.161H22.9464V20.0458L16.6716 26.3203L10.4439 20.0922V30.2638H7V11.7774L16.6717 21.4499L26.3904 11.7319Z" fill="black"/>
<path fill-rule="evenodd" clip-rule="evenodd" d="M63.7056 20.4495L70.7757 27.5194L68.3405 29.9546L61.2703 22.8847L54.2001 29.9546L51.765 27.5194L58.8351 20.4495L51.5405 13.1552L53.9757 10.72L61.2703 18.0143L68.5649 10.72L71.0001 13.1552L63.7056 20.4495Z" fill="#F9AC00"/>
</svg>
