<svg xmlns="http://www.w3.org/2000/svg" viewBox="0 0 507.22 58.13"><title>logo-light</title><path d="M149.83,57.66a24.36,24.36,0,0,1-11.31-2.48,18.09,18.09,0,0,1-7.52-7,20.56,20.56,0,0,1-2.69-10.7,31.21,31.21,0,0,1,2.28-12,28.94,28.94,0,0,1,16-16,31.57,31.57,0,0,1,12.13-2.28,25.26,25.26,0,0,1,11.69,2.54,18.41,18.41,0,0,1,7.61,7.08,20.35,20.35,0,0,1,2.68,10.5,25.67,25.67,0,0,1-.9,6.79A20.49,20.49,0,0,1,177.2,40,13.21,13.21,0,0,1,173,44.08a11.14,11.14,0,0,1-5.81,1.51,7.86,7.86,0,0,1-4.83-1.34A5.8,5.8,0,0,1,160,40.58a12,12,0,0,1-4.34,3.76A12.28,12.28,0,0,1,150,45.71a8.91,8.91,0,0,1-6.88-2.65,10.22,10.22,0,0,1-2.45-7.2,18.8,18.8,0,0,1,1-6.1,17.06,17.06,0,0,1,2.82-5.24,13.93,13.93,0,0,1,4.38-3.65,11.74,11.74,0,0,1,5.56-1.34q5.43,0,7.12,4.14l.64-3.61h6.12l-2.74,15.62a7.62,7.62,0,0,0,.15,3.65c.33.91,1.15,1.37,2.47,1.37a4.14,4.14,0,0,0,2.95-1.2,9.74,9.74,0,0,0,2.1-3.15,20.26,20.26,0,0,0,1.28-4.25,24.36,24.36,0,0,0,.44-4.52q0-7.11-4.49-11.23c-3-2.74-7.15-4.11-12.48-4.11a23.61,23.61,0,0,0-9.53,1.9,23.11,23.11,0,0,0-7.58,5.28,24.09,24.09,0,0,0-5,7.84,25.75,25.75,0,0,0-1.77,9.59q0,7.45,4.43,11.57t12.24,4.11A26.25,26.25,0,0,0,156,52a21.67,21.67,0,0,0,4.75-1.52L162,55.33A30.79,30.79,0,0,1,149.83,57.66Zm2.51-17.43a6.76,6.76,0,0,0,3.84-1.17A8.79,8.79,0,0,0,159,35.89a10.14,10.14,0,0,0,1.22-4.52,6.89,6.89,0,0,0-1.13-4.55A4.7,4.7,0,0,0,155,25a6.33,6.33,0,0,0-4.08,1.4,9.56,9.56,0,0,0-2.74,3.59,11.1,11.1,0,0,0-1,4.69,6,6,0,0,0,1.32,4A4.72,4.72,0,0,0,152.34,40.23Z" fill="#4c3200"/><path d="M188.83,45.3V16.38h6.59l.58,4.9a10.21,10.21,0,0,1,3.88-4.08,11.43,11.43,0,0,1,6-1.52q5.35,0,8.33,3.39t3,9.91V45.3h-7.46V29.68A9.28,9.28,0,0,0,208.19,24a5.57,5.57,0,0,0-4.72-2,6.65,6.65,0,0,0-5.16,2.22,8.84,8.84,0,0,0-2,6.18V45.3Z" fill="#4c3200"/><path d="M235.12,46q-5.42,0-8.36-3.38t-2.95-9.91V16.38h7.41V32a9.25,9.25,0,0,0,1.51,5.71,5.65,5.65,0,0,0,4.79,2,6.57,6.57,0,0,0,5.1-2.21,8.88,8.88,0,0,0,2-6.18V16.38h7.46V45.3H245.5l-.58-4.9A10.11,10.11,0,0,1,241,44.49,11.31,11.31,0,0,1,235.12,46Z" fill="#4c3200"/><path d="M257,45.3l10.49-14.46L257,16.38h8l7.34,10.26,7.29-10.26h8.05L277.1,30.84,287.66,45.3h-8.05L272.32,35,265,45.3Z" fill="#4c3200"/><path d="M305.32,45.3A11.3,11.3,0,0,1,298,43.09c-1.82-1.48-2.74-4.1-2.74-7.87V22.62h-5V16.38h5l.88-7.75h6.58v7.75h7.82v6.24h-7.82V35.27a3.74,3.74,0,0,0,.91,2.89,4.8,4.8,0,0,0,3.12.79h3.61V45.3Z" fill="#4c3200"/><path d="M311.5,58.13V51.77h2.27a4,4,0,0,0,2.74-.75,3.39,3.39,0,0,0,.82-2.57V16.38h7.46V48.45q0,5.25-2.65,7.46a10.87,10.87,0,0,1-7.2,2.22Zm9.62-46.24a4.69,4.69,0,0,1-3.35-1.22,4,4,0,0,1-1.31-3.09,3.94,3.94,0,0,1,1.31-3.06,5.28,5.28,0,0,1,6.7,0,4,4,0,0,1,1.32,3.06,4,4,0,0,1-1.32,3.09A4.69,4.69,0,0,1,321.12,11.89Z" fill="#4c3200"/><path d="M344.56,46a17.14,17.14,0,0,1-6.77-1.25,11.73,11.73,0,0,1-4.66-3.47,10,10,0,0,1-2.1-5.13h7.52a4.84,4.84,0,0,0,1.9,2.88,6.32,6.32,0,0,0,4,1.2,5.4,5.4,0,0,0,3.59-1A3,3,0,0,0,349.16,37a2.5,2.5,0,0,0-1.63-2.53A27.59,27.59,0,0,0,343,33.12c-1.24-.28-2.5-.61-3.79-1a16.92,16.92,0,0,1-3.52-1.48,7.7,7.7,0,0,1-2.6-2.33,6.07,6.07,0,0,1-1-3.53,8.19,8.19,0,0,1,3.06-6.47q3.06-2.62,8.6-2.63a13,13,0,0,1,8.19,2.39,9.72,9.72,0,0,1,3.65,6.59h-7.06q-.64-3.19-4.84-3.2a5.5,5.5,0,0,0-3.23.81,2.45,2.45,0,0,0-1.14,2c0,.86.56,1.54,1.69,2a23.86,23.86,0,0,0,4.49,1.4c2,.47,3.88,1,5.57,1.55a9.38,9.38,0,0,1,4.05,2.5,6.84,6.84,0,0,1,1.52,4.76,8.22,8.22,0,0,1-1.4,4.84,9.78,9.78,0,0,1-4.2,3.38A15.89,15.89,0,0,1,344.56,46Z" fill="#4c3200"/><path d="M360.77,51.77,375.34,0h7.29L368,51.77Z" fill="#4c3200"/><path d="M386.65,45.3V16.38h6.59l.64,3.91a10.22,10.22,0,0,1,3.7-3.35,11,11,0,0,1,5.34-1.26q6.7,0,9.5,5.19a11.33,11.33,0,0,1,4.23-3.79,12.27,12.27,0,0,1,5.8-1.4q5.66,0,8.69,3.39t3,9.91V45.3h-7.46V29.68A9.72,9.72,0,0,0,425.28,24a5.06,5.06,0,0,0-4.4-2A6,6,0,0,0,416,24.2a9.36,9.36,0,0,0-1.84,6.18V45.3h-7.46V29.68A9.56,9.56,0,0,0,405.25,24a5.21,5.21,0,0,0-4.49-2A6,6,0,0,0,396,24.2a9.41,9.41,0,0,0-1.83,6.18V45.3Z" fill="#e29503"/><path d="M454.58,46a13.55,13.55,0,0,1-7.29-2,14.26,14.26,0,0,1-5.08-5.42,16.2,16.2,0,0,1-1.86-7.82A16,16,0,0,1,442.21,23a14.09,14.09,0,0,1,5.08-5.36,13.63,13.63,0,0,1,7.29-2,12.57,12.57,0,0,1,5.71,1.23,10.22,10.22,0,0,1,4,3.44v-17h7.47v42h-6.65l-.82-4.14a13.18,13.18,0,0,1-3.7,3.38A10.93,10.93,0,0,1,454.58,46Zm1.57-6.53a7.79,7.79,0,0,0,5.92-2.42,8.65,8.65,0,0,0,2.3-6.21,8.68,8.68,0,0,0-2.3-6.21,8.45,8.45,0,0,0-11.81,0,8.52,8.52,0,0,0-2.33,6.18A8.69,8.69,0,0,0,450.26,37,7.76,7.76,0,0,0,456.15,39.47Z" fill="#e29503"/><path d="M476.55,45.3l10.5-14.46-10.5-14.46h8l7.35,10.26,7.29-10.26h8L496.67,30.84,507.22,45.3h-8L491.89,35,484.54,45.3Z" fill="#e29503"/><path d="M113.65,53.34H4.35A4.35,4.35,0,0,1,0,49V9.13A4.35,4.35,0,0,1,4.35,4.79h109.3A4.35,4.35,0,0,1,118,9.13V49A4.35,4.35,0,0,1,113.65,53.34ZM4.35,5.76A3.37,3.37,0,0,0,1,9.13V49a3.37,3.37,0,0,0,3.37,3.37h109.3A3.37,3.37,0,0,0,117,49V9.13a3.37,3.37,0,0,0-3.37-3.37Z" fill="#eaeaea"/><polygon points="70.24 27.86 61.97 36.13 61.97 15.63 58.07 15.63 58.07 35.94 49.83 27.69 47.07 30.45 60.12 43.5 73 30.62 70.24 27.86"/><polygon points="15.63 43.38 11.73 43.38 11.73 17.27 25.56 31.09 39.45 17.2 39.45 43.23 35.55 43.23 35.55 26.62 25.56 36.61 15.63 26.69 15.63 43.38"/><polygon points="103.17 42.48 92.17 31.48 81.17 42.48 78.42 39.72 89.42 28.72 78.08 17.39 80.84 14.63 92.17 25.96 103.51 14.63 106.27 17.39 94.93 28.72 105.93 39.72 103.17 42.48" fill="#f9ac00"/></svg>